# xmcd
#
# Track frame offsets:
#	150
#	15918
#	31621
#	46143
#	62761
#	77640
#	90650
#	105088
#	120560
#	137557
#	152222
#
# Disc length: 2236 seconds
#
# Revision: 1
# Processed by: cddbd v1.5.2PL0 Copyright (c) Steve Scherf et al.
# Submitted via: audiograbber 1.83.01
#
DISCID=7008ba0b
DTITLE=Kevin Fowler - Chippin' Away
DYEAR=2011
DGENRE=Country
TTITLE0=That Girl
TTITLE1=Hell Yeah I Like Beer
TTITLE2=Here's To Me And You
TTITLE3=Daddies And Daughters
TTITLE4=Beer Money
TTITLE5=Girl In A Truck
TTITLE6=Borderline Crazy
TTITLE7=Big River
TTITLE8=Do That With You Gone
TTITLE9=Chippin' Away
TTITLE10=Knocked Up (Live)
EXTD=
EXTT0=
EXTT1=
EXTT2=
EXTT3=
EXTT4=
EXTT5=
EXTT6=
EXTT7=
EXTT8=
EXTT9=
EXTT10=
PLAYORDER=
